# xmcd
#
# Track frame offsets: 
#        150
#        16928
#        36445
#        52184
#        66456
#        79313
#        97793
#        117986
#        135050
#        151384
#        166862
#        185305
#        199408
#
# Disc length: 2858 seconds
#
# Revision: 6
# Processed by: cddbd v1.5.2PL0 Copyright (c) Steve Scherf et al.
# Submitted via: ExactAudioCopy v0.99pb5
#
DISCID=aa0b280d
DTITLE=Malia - Yellow Daffodils
DYEAR=2003
DGENRE=Blues
TTITLE0=Yellow daffodils
TTITLE1=Purple shoes
TTITLE2=I believed in roses
TTITLE3=I'am not jealous
TTITLE4=India song
TTITLE5=Twinckling little star
TTITLE6=Lifting you high
TTITLE7=Angel kiss
TTITLE8=Solitude
TTITLE9=Big brown eyes
TTITLE10=Let it happen
TTITLE11=Moon glows
TTITLE12=Purple shoes (bonus track)
EXTD=YEAR: 2003
EXTT0=
EXTT1=
EXTT2=
EXTT3=
EXTT4=
EXTT5=
EXTT6=
EXTT7=
EXTT8=
EXTT9=
EXTT10=
EXTT11=
EXTT12=
PLAYORDER=
